<svg width="220" height="30" viewBox="0 0 220 30" fill="none" xmlns="http://www.w3.org/2000/svg">
<path d="M2.45208 19.6459C2.29655 19.6459 2.13844 19.5734 1.97255 19.431C1.80666 19.286 1.72371 19.1177 1.72371 18.9184C1.72371 18.807 1.75222 18.6983 1.80666 18.5869C1.86109 18.4756 2.03216 18.3384 2.31988 18.1727C2.6076 18.0069 3.2582 17.6936 4.27429 17.2302C4.73826 16.8547 4.96895 16.5673 4.96895 16.3705C4.96895 16.2592 4.90156 16.166 4.76937 16.0883C4.63717 16.0106 4.47128 15.9174 4.27169 15.8087C3.74292 15.5653 3.1286 15.3504 2.43393 15.164C1.73926 14.9775 1.17938 14.7833 0.762062 14.584C0.34215 14.3846 0.0984978 14.1101 0.0336966 13.7554L0 13.556C0 13.3126 0.0984978 13.0718 0.298085 12.8285C0.762062 12.2329 1.54486 11.6529 2.64907 11.0911C3.75328 10.5292 4.84713 10.1486 5.92801 9.94922C6.36866 9.94922 6.61231 10.1253 6.65638 10.48C6.65638 10.9202 6.48012 11.1636 6.1276 11.2076C5.13485 11.3837 4.08507 11.7695 2.98085 12.365C2.12029 12.8518 1.60189 13.2246 1.42303 13.4913C1.77555 13.6234 2.25249 13.7787 2.84866 13.9548C3.82068 14.2655 4.54904 14.5296 5.03376 14.7497C5.65066 15.0578 6.03947 15.4669 6.1924 15.9744C6.23647 16.1064 6.25979 16.2385 6.25979 16.3705L13.6471 13.1288C13.7586 13.0848 13.8467 13.0615 13.9115 13.0615C14.1759 13.0615 14.3755 13.1832 14.5077 13.424C14.5518 13.512 14.5751 13.6104 14.5751 13.7217C14.5751 13.9418 14.4533 14.1308 14.2096 14.2836L8.84406 16.6657C7.47546 17.2172 6.17166 17.7791 4.93526 18.3539C4.22763 18.8821 3.62109 19.2472 3.11305 19.4466C2.89272 19.5786 2.66981 19.6459 2.44948 19.6459H2.45208Z" fill="black"/>
<path d="M12.2556 18.7864C12.2115 18.7864 12.1675 18.7761 12.1234 18.7528C12.0793 18.7295 12.0456 18.7191 12.0249 18.7191C11.5817 18.499 11.3613 18.1443 11.3613 17.6601C11.3613 16.4691 12.6418 14.2734 15.2027 11.0757C17.4319 8.25339 19.6948 5.73924 21.9939 3.53321C23.6062 1.96671 24.9411 0.951726 26.0012 0.488251L26.2008 0.45459C26.5326 0.45459 26.7529 0.641019 26.8644 1.01646V1.08377C26.8644 1.39189 26.7192 1.60162 26.4341 1.71296C25.6824 2.02367 24.5574 2.8833 23.0566 4.29444C21.5558 5.70557 19.9306 7.42742 18.1888 9.45739C16.5091 11.42 15.1535 13.1859 14.1141 14.7524L14.0467 14.8845C13.803 15.2159 13.6812 15.4256 13.6812 15.5136C13.6812 15.713 13.7693 15.8114 13.9456 15.8114C14.0337 15.8114 14.4433 15.48 15.1716 14.8197C16.4521 13.6934 17.4682 12.8519 18.2199 12.2874C18.969 11.7256 19.5781 11.4433 20.0421 11.4433C20.5061 11.4433 20.7938 11.6427 20.97 12.0389C21.0815 12.259 21.1904 12.5567 21.3018 12.9322C21.5222 13.6597 21.7658 14.2889 22.0302 14.8171C22.362 15.4567 22.8908 15.9201 23.6191 16.2076C23.9509 16.3189 24.3138 16.3733 24.713 16.3733C26.4341 16.3733 28.8084 15.3143 31.8333 13.1963C31.9655 13.1082 32.0977 13.0642 32.2299 13.0642C32.4295 13.0642 32.5824 13.1367 32.6939 13.2791C32.8053 13.4241 32.8598 13.5613 32.8598 13.6934C32.8598 13.9135 32.7716 14.1025 32.5954 14.2553C29.3709 16.5286 26.7322 17.6627 24.6793 17.6627C24.1505 17.6627 23.6528 17.585 23.1888 17.4323C22.1728 17.0361 21.4392 16.4276 20.9856 15.612C20.532 14.7964 20.2184 14.0352 20.0421 13.3283C19.998 13.1289 19.9436 12.9529 19.8762 12.8001C19.7207 12.8441 19.363 13.0823 18.8005 13.5121C18.238 13.942 17.5796 14.4883 16.8305 15.1486L12.691 18.6233C12.5796 18.7321 12.437 18.789 12.2608 18.789L12.2556 18.7864Z" fill="black"/>
<path d="M39.7805 17.6939C38.1683 17.6939 36.9215 17.2641 36.0376 16.4045C35.9936 16.3605 35.9495 16.3216 35.9054 16.288C35.8614 16.2543 35.8173 16.2051 35.7732 16.1404C35.5296 15.897 35.2548 15.7753 34.9438 15.7753C34.7235 15.7753 34.4902 15.853 34.2491 16.0083C32.8572 17.0674 31.797 17.5956 31.0687 17.5956C30.781 17.5956 30.4881 17.492 30.19 17.2823C29.8919 17.0725 29.7441 16.7592 29.7441 16.3398V16.1404C29.9204 15.3248 30.4907 14.4652 31.4497 13.5589C32.4114 12.6553 33.3652 12.0157 34.3139 11.6403C34.6898 11.5082 35.0086 11.4409 35.2756 11.4409C35.7162 11.4409 36.0273 11.5341 36.2035 11.7231C36.3798 11.9122 36.4679 12.1038 36.4679 12.3031C36.4679 12.7226 36.258 12.9323 35.838 12.9323C35.7058 12.9323 35.5607 12.8779 35.4078 12.7666L35.2756 12.733C35.12 12.733 34.8012 12.8443 34.3139 13.0644C33.5182 13.4838 32.7457 14.0794 31.9966 14.851C31.4886 15.4258 31.1905 15.8426 31.1024 16.1093C31.1024 16.2207 31.1464 16.275 31.2346 16.275C31.7426 16.1637 32.5928 15.6588 33.7851 14.7526L34.2828 14.3875C34.9464 13.8153 35.3974 13.5278 35.641 13.5278C35.7732 13.5278 35.8951 13.5615 36.0065 13.6262C36.1828 13.7583 36.2709 13.9085 36.2709 14.0742C36.2709 14.2399 36.2813 14.3875 36.3046 14.5221C36.3487 14.9416 36.7453 15.3818 37.497 15.8452C38.0931 16.1974 38.8552 16.3734 39.7831 16.3734C41.9682 16.3734 44.5629 15.3144 47.5671 13.1964C47.6992 13.1084 47.8314 13.0644 47.9636 13.0644C48.1632 13.0644 48.3395 13.1628 48.4924 13.3621C48.5598 13.4735 48.5909 13.5822 48.5909 13.6936C48.5909 13.9137 48.4924 14.1027 48.2928 14.2554C45.356 16.3061 42.7381 17.4428 40.4415 17.6629L39.778 17.6965L39.7805 17.6939Z" fill="black"/>
<path d="M44.6169 20.5058C44.5288 20.5058 44.4303 20.4824 44.3188 20.4384C43.9663 20.2391 43.79 19.9206 43.79 19.4778C43.79 18.859 44.464 17.5695 45.8118 15.6069C46.9601 13.9317 48.4065 12.0545 50.1509 9.98306C54.3008 5.0868 57.2272 2.26193 58.9276 1.51364C58.995 1.49293 59.0702 1.47998 59.1583 1.47998C59.2905 1.47998 59.433 1.52918 59.5886 1.63016C59.7441 1.72855 59.8193 1.88909 59.8193 2.10917C59.8193 2.24122 59.7804 2.36809 59.7026 2.48978C59.6249 2.61148 59.5212 2.69434 59.389 2.73836C58.6813 3.02576 57.5771 3.9087 56.0763 5.38457C54.5755 6.86302 52.9063 8.69362 51.0737 10.8764L49.8814 12.3315C49.858 12.3548 49.8477 12.3988 49.8477 12.4636C49.8477 12.5956 49.915 12.6629 50.0472 12.6629C50.1146 12.6629 50.1587 12.6526 50.1794 12.6293C50.576 12.3885 51.0296 12.1451 51.5377 11.9017C53.5906 10.6899 55.4231 9.72932 57.0354 9.02245C57.0561 9.02245 57.0846 9.01209 57.1183 8.98879C57.152 8.96549 57.2117 8.95513 57.2998 8.95513C57.5434 8.95513 57.7301 9.09754 57.8623 9.38494L57.896 9.48334C57.896 9.83547 57.7638 10.0789 57.4994 10.2109C56.0193 10.8945 54.2982 11.7981 52.3334 12.9244C51.8902 13.1445 51.3899 13.4216 50.8274 13.7504C50.265 14.0818 49.7077 14.39 49.1556 14.6774C49.1115 14.7214 49.0882 14.7654 49.0882 14.8094C49.0882 14.8767 49.1089 14.9311 49.1556 14.9751C50.7238 15.9021 52.3023 16.3656 53.8912 16.3656C55.0603 16.3656 56.3044 16.1014 57.6186 15.5707C58.9328 15.0424 60.418 14.2372 62.0743 13.1549C62.2065 13.0876 62.318 13.0565 62.4061 13.0565C62.6498 13.0565 62.8468 13.1678 63.0023 13.3879C63.0464 13.476 63.0697 13.5743 63.0697 13.6857C63.0697 13.9058 62.9712 14.0948 62.7716 14.2475C59.3268 16.5209 56.4988 17.655 54.293 17.655L53.8964 17.6887C52.1079 17.6887 50.265 17.1268 48.365 16.0005C48.1887 15.8891 47.9995 15.8348 47.8025 15.8348C47.45 15.8348 47.139 16.0005 46.8746 16.3319L46.8072 16.4303C45.7911 17.9295 45.2286 18.9341 45.1172 19.4416C45.2053 19.5736 45.2494 19.7057 45.2494 19.8377C45.2494 19.905 45.2286 19.9931 45.182 20.1018C45.1379 20.2106 45.0601 20.3064 44.9513 20.3841C44.8398 20.4617 44.731 20.5006 44.6195 20.5006L44.6169 20.5058Z" fill="black"/>
<path d="M69.9876 17.6939C68.3753 17.6939 67.1286 17.2641 66.2447 16.4045C66.2006 16.3605 66.1565 16.3216 66.1125 16.288C66.0684 16.2543 66.0243 16.2051 65.9803 16.1404C65.7366 15.897 65.4619 15.7753 65.1508 15.7753C64.9305 15.7753 64.6972 15.853 64.4562 16.0083C63.0642 17.0674 62.0041 17.5956 61.2757 17.5956C60.988 17.5956 60.6951 17.492 60.397 17.2823C60.0989 17.0725 59.9512 16.7592 59.9512 16.3398V16.1404C60.1274 15.3248 60.6977 14.4652 61.6567 13.5589C62.6184 12.6553 63.5723 12.0157 64.521 11.6403C64.8968 11.5082 65.2156 11.4409 65.4826 11.4409C65.9233 11.4409 66.2343 11.5341 66.4106 11.7231C66.5868 11.9122 66.6749 12.1038 66.6749 12.3031C66.6749 12.7226 66.465 12.9323 66.0451 12.9323C65.9129 12.9323 65.7677 12.8779 65.6148 12.7666L65.4826 12.733C65.3271 12.733 65.0083 12.8443 64.521 13.0644C63.7252 13.4838 62.9528 14.0794 62.2037 14.851C61.6956 15.4258 61.3975 15.8426 61.3094 16.1093C61.3094 16.2207 61.3535 16.275 61.4416 16.275C61.9496 16.1637 62.7998 15.6588 63.9922 14.7526L64.4898 14.3875C65.1534 13.8153 65.6044 13.5278 65.8481 13.5278C65.9803 13.5278 66.1021 13.5615 66.2136 13.6262C66.3898 13.7583 66.4779 13.9085 66.4779 14.0742C66.4779 14.2399 66.4883 14.3875 66.5116 14.5221C66.5557 14.9416 66.9523 15.3818 67.704 15.8452C68.3002 16.1974 69.0622 16.3734 69.9902 16.3734C72.1753 16.3734 74.7699 15.3144 77.7741 13.1964C77.9063 13.1084 78.0385 13.0644 78.1707 13.0644C78.3703 13.0644 78.5465 13.1628 78.6994 13.3621C78.7668 13.4735 78.7979 13.5822 78.7979 13.6936C78.7979 13.9137 78.6995 14.1027 78.4999 14.2554C75.5631 16.3061 72.9451 17.4428 70.6486 17.6629L69.985 17.6965L69.9876 17.6939Z" fill="black"/>
<path d="M94.5655 20.3063C93.9693 20.3063 93.4276 20.195 92.9428 19.9749C91.8386 19.4234 91.2528 18.5534 91.188 17.3598C91.188 16.9843 91.1984 16.6866 91.2217 16.4665C91.2217 16.3111 91.1777 16.192 91.0895 16.104C91.0014 16.016 90.9029 15.9719 90.7914 15.9719C90.7033 15.9719 90.6152 16.0056 90.5271 16.0703C90.1305 16.3577 89.7106 16.6218 89.2673 16.8652C88.5156 17.3727 87.7873 17.6265 87.0822 17.6265C86.7297 17.6265 86.3927 17.4996 86.0713 17.2459C85.7499 16.9921 85.5918 16.6659 85.5918 16.2697C85.5918 16.0936 85.6255 15.9176 85.6903 15.7415C85.9987 14.8586 86.7012 13.9886 87.7924 13.129C88.8863 12.2693 89.9516 11.7515 90.9884 11.5728L91.385 11.5392C92.1134 11.5392 92.6551 11.8369 93.0076 12.4325C93.8915 11.1534 94.7962 9.99597 95.7241 8.95768C98.4406 5.95675 101.079 3.67563 103.64 2.10913C103.772 2.04181 103.884 2.01074 103.972 2.01074C104.216 2.01074 104.402 2.13244 104.534 2.37583C104.579 2.46386 104.602 2.56225 104.602 2.67359C104.602 2.89367 104.49 3.08268 104.27 3.23545C103.166 3.91901 101.929 4.85114 100.561 6.03184C99.1923 7.21253 97.8988 8.47609 96.6858 9.8199C93.8812 13.0409 92.4789 15.4774 92.4789 17.1319C92.4789 17.9268 92.821 18.4887 93.5053 18.8201C93.8138 18.9522 94.1689 19.0195 94.5655 19.0195C96.1103 19.0195 98.2099 18.0149 100.859 16.0082C101.986 15.1486 103.023 14.32 103.972 13.5277C104.128 13.3956 104.27 13.2843 104.402 13.1963C104.534 13.1082 104.677 13.0642 104.833 13.0642C105.009 13.0642 105.159 13.1367 105.278 13.2791C105.4 13.4241 105.46 13.5614 105.46 13.6934C105.46 13.8928 105.377 14.0637 105.211 14.2061C105.045 14.3485 104.83 14.5323 104.566 14.7524L104.037 15.1822C102.689 16.3526 101.012 17.5643 99.0031 18.8227C97.2819 19.8144 95.8019 20.3115 94.5655 20.3115V20.3063ZM87.1107 16.337C87.9272 16.337 89.5628 15.3117 92.0123 13.261L91.9138 13.0953C91.7816 12.9192 91.582 12.8312 91.3176 12.8312C91.0973 12.8312 90.8744 12.8752 90.6541 12.9632C89.5939 13.3154 88.6115 13.9679 87.7069 14.9155C87.4633 15.2029 87.287 15.4437 87.1781 15.6431C87.0019 15.9305 86.9137 16.1506 86.9137 16.306C86.9578 16.3293 87.0252 16.3396 87.1133 16.3396L87.1107 16.337Z" fill="black"/>
<path d="M105.694 17.8257C104.898 17.8257 104.237 17.6056 103.706 17.1628C103.262 16.7227 103.042 16.2255 103.042 15.674C103.042 15.1665 103.242 14.6383 103.638 14.0868C104.211 13.3152 104.996 12.6524 105.989 12.1009C106.629 11.6814 107.249 11.4717 107.845 11.4717C108.086 11.4717 108.286 11.5157 108.441 11.6037C108.817 11.7798 109.004 12.1009 109.004 12.5643C109.004 13.3152 108.408 14.1205 107.215 14.9801C106.375 15.5989 105.548 15.9071 104.732 15.9071C104.6 15.9071 104.532 15.9614 104.532 16.0728C104.532 16.1401 104.543 16.1841 104.566 16.2048C104.831 16.4042 105.206 16.5026 105.691 16.5026C106.399 16.5026 107.303 16.3162 108.408 15.9407C110.328 15.1691 112.008 14.3742 113.441 13.5586L114.203 13.1625C114.271 13.1184 114.38 13.0951 114.535 13.0951C114.776 13.0951 114.965 13.1935 115.098 13.3929C115.165 13.4809 115.196 13.5793 115.196 13.6907C115.196 13.9548 115.074 14.1541 114.833 14.2862C114.678 14.3535 114.501 14.4519 114.302 14.584C112.998 15.3348 111.432 16.0961 109.6 16.8677C108.12 17.5072 106.819 17.8283 105.691 17.8283L105.694 17.8257ZM105.165 14.584C105.606 14.4726 106.103 14.2085 106.655 13.7891C106.943 13.569 107.218 13.3049 107.482 12.9942V12.9605C107.482 12.9165 107.448 12.8932 107.384 12.8932C107.052 12.9812 106.666 13.1702 106.225 13.455C105.696 13.8072 105.297 14.1386 105.033 14.4467V14.4804C105.033 14.5477 105.077 14.5788 105.165 14.5788V14.584Z" fill="black"/>
<path d="M116.658 19.6459C116.503 19.6459 116.344 19.5734 116.179 19.431C116.013 19.286 115.93 19.1177 115.93 18.9184C115.93 18.807 115.958 18.6983 116.013 18.5869C116.067 18.4756 116.238 18.3384 116.526 18.1727C116.814 18.0069 117.464 17.6936 118.48 17.2302C118.944 16.8547 119.175 16.5673 119.175 16.3705C119.175 16.2592 119.108 16.166 118.975 16.0883C118.843 16.0106 118.677 15.9174 118.478 15.8087C117.949 15.5653 117.335 15.3504 116.64 15.164C115.945 14.9775 115.385 14.7833 114.968 14.584C114.548 14.3846 114.305 14.1101 114.24 13.7554L114.206 13.556C114.206 13.3126 114.305 13.0718 114.504 12.8285C114.968 12.2329 115.751 11.6529 116.855 11.0911C117.959 10.5292 119.053 10.1486 120.134 9.94922C120.575 9.94922 120.818 10.1253 120.862 10.48C120.862 10.9202 120.686 11.1636 120.334 11.2076C119.341 11.3837 118.291 11.7695 117.187 12.365C116.326 12.8518 115.808 13.2246 115.629 13.4913C115.982 13.6234 116.456 13.7787 117.052 13.9548C118.024 14.2655 118.753 14.5296 119.237 14.7497C119.854 15.0578 120.243 15.4669 120.396 15.9744C120.44 16.1064 120.463 16.2385 120.463 16.3705L127.851 13.1288C127.962 13.0848 128.05 13.0615 128.115 13.0615C128.379 13.0615 128.579 13.1832 128.711 13.424C128.755 13.512 128.779 13.6104 128.779 13.7217C128.779 13.9418 128.657 14.1308 128.416 14.2836L123.05 16.6657C121.682 17.2172 120.378 17.7791 119.141 18.3539C118.434 18.8821 117.827 19.2472 117.319 19.4466C117.099 19.5786 116.876 19.6459 116.656 19.6459H116.658Z" fill="black"/>
<path d="M130.833 17.7276C129.685 17.7276 128.824 17.4195 128.249 16.8007C127.72 16.1611 127.453 15.4776 127.453 14.75C127.453 14.1545 127.609 13.6133 127.917 13.1291C128.073 12.9531 128.249 12.865 128.446 12.865C128.578 12.865 128.7 12.8987 128.811 12.9634C129.011 13.0955 129.109 13.2845 129.109 13.5253C129.109 13.6133 129.076 13.7246 129.011 13.8567C128.835 14.1001 128.747 14.4082 128.747 14.7836C128.747 15.1798 128.907 15.5501 129.226 15.8918C129.545 16.2336 130.071 16.4045 130.799 16.4045C132.655 16.4045 135.216 15.3248 138.485 13.1628C138.617 13.0955 138.729 13.0644 138.817 13.0644C139.06 13.0644 139.247 13.1628 139.379 13.3621C139.447 13.4735 139.478 13.5926 139.478 13.7246C139.478 13.924 139.39 14.1001 139.213 14.2529C135.657 16.5676 132.865 17.7276 130.833 17.7276ZM129.84 11.4746C129.641 11.4746 129.48 11.4021 129.361 11.2597C129.239 11.1173 129.179 10.9671 129.179 10.8117C129.179 10.6357 129.257 10.47 129.41 10.3146L129.675 10.1152C129.918 9.93917 130.172 9.77346 130.437 9.6181C130.504 9.57409 130.613 9.55078 130.768 9.55078C131.012 9.55078 131.199 9.64917 131.331 9.84854C131.398 9.93658 131.429 10.0376 131.429 10.1463C131.429 10.4104 131.253 10.6538 130.901 10.8739C130.68 10.9852 130.457 11.138 130.237 11.3374C130.105 11.4254 129.973 11.4694 129.84 11.4694V11.4746Z" fill="black"/>
<path d="M130.999 29.2418C130.735 29.2418 130.486 29.1641 130.253 29.0088C130.022 28.8534 129.905 28.6333 129.905 28.3485C129.905 28.1931 129.96 28.0171 130.071 27.8177C130.291 27.3775 131.121 26.6267 132.554 25.5677C133.791 24.6407 134.973 23.8251 136.098 23.1182L136.694 22.7221L138.117 20.9691C139.926 18.6311 141.406 16.5907 142.554 14.8482C142.575 14.8275 142.588 14.7938 142.588 14.7498C142.588 14.6384 142.534 14.5841 142.422 14.5841C142.378 14.5841 142.345 14.5944 142.324 14.6177C141.22 15.5214 140.276 16.2334 139.491 16.7513C138.705 17.2691 138.049 17.528 137.521 17.528C137.256 17.528 137.013 17.4504 136.792 17.2976C136.461 17.0982 136.295 16.7668 136.295 16.3059C136.295 15.9305 136.481 15.4463 136.857 14.8508C137.386 14.1232 138.143 13.4008 139.125 12.6836C140.108 11.9664 141.007 11.609 141.824 11.609C142.199 11.609 142.508 11.6971 142.751 11.8731C142.863 11.9405 142.943 12.0155 143 12.1036C143.055 12.1916 143.127 12.2356 143.215 12.2356C143.283 12.2356 143.327 12.2253 143.348 12.202C143.9 11.8058 144.34 11.6064 144.672 11.6064C144.804 11.6064 144.965 11.6556 145.152 11.754C145.338 11.8524 145.434 12.0466 145.434 12.334C145.434 12.4454 145.401 12.5878 145.336 12.7638C145.204 13.1393 144.729 13.9445 143.913 15.1796L143.117 16.3059C142.588 17.1008 142.002 17.9371 141.362 18.8201C141.295 18.9081 141.264 18.9858 141.264 19.0505C141.264 19.1619 141.308 19.2551 141.396 19.3328C141.484 19.4104 141.572 19.4493 141.66 19.4493C141.728 19.4493 141.803 19.4286 141.891 19.3819L146.131 16.7357C149.444 14.6618 151.3 13.4836 151.697 13.1962C151.785 13.1082 151.917 13.0642 152.093 13.0642C152.269 13.0642 152.42 13.1367 152.542 13.2791C152.663 13.4241 152.723 13.5613 152.723 13.6934C152.723 13.9135 152.635 14.1025 152.459 14.2552C151.443 14.9388 149.566 16.1299 146.829 17.8284C143.781 19.6823 140.691 21.6449 137.554 23.7189C136.65 24.7986 135.732 25.8136 134.804 26.7639C133.171 28.4184 131.901 29.2444 130.994 29.2444L130.999 29.2418ZM137.855 16.1376L137.954 16.104C138.174 16.0366 138.516 15.8399 138.98 15.5084C140.084 14.7809 141.165 13.9523 142.225 13.0279C142.158 13.0279 142.103 13.0124 142.059 12.9787C142.015 12.9451 141.982 12.9244 141.961 12.9114C141.938 12.9011 141.893 12.8959 141.829 12.8959C141.541 12.8959 141.002 13.1289 140.206 13.5898C139.41 14.0533 138.76 14.5815 138.252 15.177C137.987 15.4644 137.808 15.7052 137.723 15.9046L137.689 15.9719C137.689 16.0832 137.744 16.1376 137.855 16.1376Z" fill="black"/>
<path d="M151.137 17.694L151.038 17.6603C150.663 17.549 150.409 17.3082 150.276 16.9327C150.232 16.8007 150.209 16.6686 150.209 16.5366C150.209 16.0291 150.434 15.3611 150.888 14.5351C151.339 13.7091 152.018 12.7097 152.925 11.5419C153.081 11.3659 153.257 11.2778 153.454 11.2778C153.586 11.2778 153.724 11.3322 153.869 11.4435C154.012 11.5549 154.084 11.7077 154.084 11.907C154.084 12.0391 154.03 12.1841 153.918 12.3368C153.102 13.4399 152.526 14.2995 152.197 14.9183C152.174 14.9416 152.163 14.9856 152.163 15.0504C152.163 15.2057 152.241 15.2808 152.394 15.2808C152.461 15.2808 152.506 15.2705 152.526 15.2471C153.962 14.2322 155.054 13.4942 155.805 13.0308C156.645 12.4585 157.329 12.1711 157.858 12.1711C158.058 12.1711 158.244 12.2255 158.421 12.3368C158.664 12.5362 158.885 12.8832 159.084 13.3777C159.284 13.8748 159.587 14.4031 159.994 14.9649C160.404 15.5268 160.992 15.9307 161.767 16.1715C162.099 16.2595 162.441 16.3036 162.793 16.3036C164.582 16.3036 166.977 15.2679 169.981 13.1939C170.093 13.1058 170.212 13.0618 170.344 13.0618C170.588 13.0618 170.774 13.1602 170.906 13.3596C170.951 13.4269 170.974 13.5357 170.974 13.691C170.974 13.9111 170.886 14.1001 170.709 14.2529C167.529 16.4796 164.88 17.5956 162.76 17.5956C162.296 17.5956 161.842 17.5412 161.401 17.4299C160.385 17.0985 159.613 16.5806 159.084 15.8737C158.664 15.3222 158.268 14.662 157.892 13.8878C157.824 13.7117 157.705 13.6237 157.529 13.6237C157.132 13.6237 155.134 14.9364 151.534 17.5619C151.401 17.65 151.269 17.694 151.137 17.694Z" fill="black"/>
<path d="M181.91 20.3064C181.314 20.3064 180.772 20.1951 180.287 19.975C179.359 19.5322 178.784 18.8279 178.563 17.857C178.519 17.6369 178.496 17.4272 178.496 17.2278C178.496 16.0574 178.916 14.8017 179.756 13.4553C179.756 13.4112 179.777 13.3672 179.823 13.3232C181.876 9.99344 184.582 7.00286 187.939 4.35665C189.528 3.10087 190.754 2.47168 191.614 2.47168C191.923 2.47168 192.2 2.55971 192.441 2.73578C192.685 2.91185 192.807 3.15524 192.807 3.46336C192.807 3.75076 192.685 4.1029 192.441 4.52236C191.913 5.426 190.267 6.97179 187.506 9.15452C185.694 10.589 183.652 12.1218 181.378 13.753L180.881 14.1181C180.173 15.3532 179.821 16.3682 179.821 17.1631C179.821 17.9139 180.163 18.4654 180.847 18.8176C181.156 18.9729 181.511 19.048 181.907 19.048C183.828 19.048 186.765 17.3728 190.718 14.0197C191.093 13.7116 191.392 13.4734 191.612 13.3077C191.832 13.142 192.008 13.0591 192.141 13.0591C192.34 13.0591 192.498 13.1368 192.62 13.2895C192.742 13.4449 192.802 13.5873 192.802 13.7194C192.802 13.9187 192.719 14.0844 192.553 14.2165C192.387 14.3485 192.172 14.5246 191.907 14.7447L190.979 15.4723C189.676 16.596 188.131 17.712 186.342 18.815C184.621 19.8067 183.141 20.3038 181.905 20.3038L181.91 20.3064ZM183.732 10.4466L184.758 9.65165C187.164 7.82105 188.932 6.3659 190.059 5.2836C190.767 4.60004 191.163 4.18058 191.252 4.02523V3.99157C191.252 3.92424 191.218 3.89317 191.153 3.89317C190.689 4.00451 189.829 4.54308 188.569 5.51404C186.78 6.9925 185.324 8.36998 184.196 9.64907L183.932 9.94683L183.634 10.3119C183.634 10.3999 183.667 10.444 183.732 10.444V10.4466Z" fill="black"/>
<path d="M199.73 17.6939C198.118 17.6939 196.871 17.2641 195.987 16.4045C195.943 16.3605 195.899 16.3216 195.855 16.288C195.811 16.2543 195.767 16.2051 195.722 16.1404C195.479 15.897 195.204 15.7753 194.896 15.7753C194.675 15.7753 194.442 15.853 194.201 16.0083C192.809 17.0674 191.749 17.5956 191.02 17.5956C190.733 17.5956 190.44 17.492 190.142 17.2823C189.844 17.0725 189.693 16.7592 189.693 16.3398V16.1404C189.87 15.3248 190.44 14.4652 191.399 13.5589C192.361 12.6553 193.314 12.0157 194.263 11.6403C194.639 11.5082 194.958 11.4409 195.225 11.4409C195.665 11.4409 195.976 11.5341 196.153 11.7231C196.329 11.9122 196.417 12.1038 196.417 12.3031C196.417 12.7226 196.207 12.9323 195.787 12.9323C195.655 12.9323 195.51 12.8779 195.357 12.7666L195.225 12.733C195.069 12.733 194.75 12.8443 194.263 13.0644C193.467 13.4838 192.695 14.0794 191.943 14.851C191.435 15.4258 191.137 15.8426 191.049 16.1093C191.049 16.2207 191.093 16.275 191.181 16.275C191.689 16.1637 192.539 15.6588 193.732 14.7526L194.229 14.3875C194.893 13.8153 195.344 13.5278 195.588 13.5278C195.72 13.5278 195.842 13.5615 195.951 13.6262C196.127 13.7583 196.215 13.9085 196.215 14.0742C196.215 14.2399 196.225 14.3875 196.249 14.5221C196.293 14.9416 196.689 15.3818 197.441 15.8452C198.037 16.1974 198.799 16.3734 199.727 16.3734C201.912 16.3734 204.507 15.3144 207.511 13.1964C207.643 13.1084 207.775 13.0644 207.908 13.0644C208.107 13.0644 208.284 13.1628 208.436 13.3621C208.504 13.4735 208.535 13.5822 208.535 13.6936C208.535 13.9137 208.436 14.1027 208.237 14.2554C205.3 16.3061 202.682 17.4428 200.386 17.6629L199.722 17.6965L199.73 17.6939Z" fill="black"/>
<path d="M205.261 20.6713C205.173 20.6713 205.08 20.6558 204.979 20.6221C204.88 20.5884 204.743 20.4849 204.564 20.3088C204.388 20.1327 204.3 19.8453 204.3 19.4492C204.3 18.2374 205.404 16.1065 207.612 13.0641C209.577 10.3506 211.565 7.95811 213.574 5.88412C214.987 4.42897 216.169 3.48131 217.117 3.03854C217.162 3.01783 217.239 3.00488 217.348 3.00488C217.48 3.00488 217.618 3.05407 217.763 3.15506C217.905 3.25345 217.978 3.42434 217.978 3.66773C217.978 3.95514 217.846 4.1545 217.581 4.26325C216.897 4.57137 215.881 5.39994 214.533 6.74375C212.392 8.92649 210.228 11.5856 208.04 14.7186C208.04 14.7419 208.03 14.7626 208.006 14.7859C207.983 14.8092 207.973 14.8403 207.973 14.8843C207.973 14.9724 208.006 15.05 208.071 15.1148C208.136 15.1795 208.214 15.2132 208.302 15.2132C208.369 15.2132 208.434 15.1795 208.502 15.1148C210.114 13.5483 211.775 12.1812 213.486 11.0108C215.197 9.84307 216.638 9.16988 217.81 8.99381C217.898 8.97309 218.03 8.96015 218.206 8.96015C218.779 8.96015 219.222 9.12585 219.531 9.45728C219.839 9.70067 219.995 10.1072 219.995 10.682C219.995 11.2568 219.673 12.0931 219.033 13.1314C218.04 14.5426 216.747 15.8346 215.158 17.0023C213.854 18.0173 212.706 18.5248 211.713 18.5248C210.985 18.5248 210.619 18.2814 210.619 17.7972C210.619 17.6212 210.679 17.4658 210.801 17.3338C210.922 17.2017 211.06 17.1344 211.215 17.1344C211.327 17.1344 211.42 17.1499 211.498 17.1836C211.576 17.2172 211.646 17.2328 211.713 17.2328C212.221 17.2328 213.126 16.8133 214.43 15.9744C215.886 14.8947 217.058 13.7036 217.942 12.4013C218.45 11.6064 218.704 11.0341 218.704 10.682C218.704 10.4179 218.605 10.2729 218.406 10.2522H217.975C216.407 10.5836 214.326 11.8238 211.731 13.9755C209.137 16.1246 207.167 18.2478 205.819 20.3451C205.687 20.5651 205.497 20.6765 205.256 20.6765L205.261 20.6713Z" fill="black"/>
</svg>
