<svg width="106" height="106" viewBox="0 0 106 106" fill="none" xmlns="http://www.w3.org/2000/svg">
<path d="M14.0923 70.3344C13.7786 70.3344 13.452 70.1894 13.1177 69.8968C12.7807 69.6042 12.6122 69.2573 12.6122 68.8559C12.6122 68.6307 12.6692 68.408 12.7807 68.1827C12.8921 67.9575 13.2395 67.6778 13.8227 67.3412C14.4059 67.0046 15.7304 66.3677 17.7937 65.4252C18.7372 64.6639 19.2064 64.0788 19.2064 63.6748C19.2064 63.4522 19.0716 63.2606 18.802 63.1026C18.5324 62.9473 18.1955 62.7557 17.7911 62.5304C16.7154 62.0384 15.4686 61.6009 14.056 61.2202C12.6433 60.8396 11.508 60.4461 10.6578 60.0447C9.80502 59.6408 9.31253 59.0815 9.17774 58.3643L9.11035 57.9604C9.11035 57.4684 9.31253 56.9739 9.71689 56.4819C10.6604 55.2702 12.2519 54.0946 14.4966 52.9528C16.7387 51.8109 18.9627 51.0367 21.1608 50.6328C22.0576 50.6328 22.5501 50.9927 22.6408 51.7099C22.6408 52.6058 22.2805 53.1004 21.5651 53.1884C19.5459 53.5483 17.4127 54.3303 15.1706 55.542C13.4209 56.5285 12.366 57.2898 12.0057 57.8283C12.7237 58.0976 13.6905 58.4109 14.901 58.7708C16.8735 59.4 18.3562 59.936 19.3438 60.3839C20.5983 61.0105 21.3837 61.8417 21.6999 62.8722C21.7881 63.1415 21.8347 63.4107 21.8347 63.6774L36.8453 57.0878C37.0682 56.9998 37.2496 56.9532 37.3844 56.9532C37.9235 56.9532 38.3253 57.1991 38.5949 57.6937C38.683 57.8723 38.7297 58.0743 38.7297 58.2996C38.7297 58.7475 38.4834 59.1281 37.9883 59.4414L27.0836 64.2833C24.2998 65.4045 21.6533 66.5463 19.1416 67.7141C17.7056 68.7886 16.4718 69.5291 15.4401 69.933C14.9917 70.2023 14.5433 70.337 14.0949 70.337L14.0923 70.3344Z" fill="black"/>
<path d="M50.5778 71.6781C49.3673 71.6781 48.2657 71.4528 47.2781 71.0049C45.0334 69.8837 43.8462 68.1127 43.7115 65.6918C43.7115 64.9305 43.7322 64.3246 43.7788 63.8767C43.7788 63.5634 43.6881 63.3174 43.5093 63.1362C43.3304 62.9575 43.1282 62.8669 42.9027 62.8669C42.7239 62.8669 42.5424 62.9342 42.3636 63.0689C41.5549 63.6514 40.7021 64.19 39.8052 64.6845C38.2785 65.7151 36.7985 66.2303 35.3625 66.2303C34.6445 66.2303 33.9602 65.974 33.3096 65.4561C32.659 64.9409 32.335 64.2806 32.335 63.4728C32.335 63.1155 32.4024 62.7556 32.5371 62.3957C33.1644 60.6039 34.59 58.8328 36.8114 57.0851C39.0328 55.3374 41.1972 54.2835 43.3071 53.9236L44.1158 53.8563C45.5959 53.8563 46.6975 54.4622 47.4155 55.6714C49.2092 53.0718 51.0495 50.7182 52.934 48.6105C58.4524 42.5154 63.8154 37.8755 69.0228 34.6907C69.2924 34.5561 69.5153 34.4888 69.6967 34.4888C70.1892 34.4888 70.5728 34.7347 70.8424 35.2293C70.9305 35.408 70.9772 35.6099 70.9772 35.8352C70.9772 36.2831 70.7517 36.6637 70.3033 36.977C68.0586 38.3675 65.5469 40.2602 62.763 42.6578C59.9791 45.0555 57.356 47.624 54.8884 50.3557C49.1885 56.9013 46.3398 61.8545 46.3398 65.2179C46.3398 66.831 47.0345 67.9755 48.4264 68.6461C49.0537 68.9154 49.7717 69.05 50.5804 69.05C53.7219 69.05 57.9859 67.0097 63.3695 62.929C65.6583 61.1813 67.7682 59.5009 69.6967 57.8852C70.0104 57.6159 70.3033 57.3932 70.5728 57.212C70.8424 57.0333 71.1327 56.9427 71.4489 56.9427C71.8066 56.9427 72.1099 57.0877 72.3562 57.3803C72.6024 57.6729 72.7268 57.9525 72.7268 58.2218C72.7268 58.6257 72.5583 58.9727 72.2214 59.2627C71.8844 59.5552 71.449 59.9255 70.9098 60.3735L69.8341 61.246C67.0969 63.623 63.6858 66.0879 59.6007 68.6435C56.1014 70.6605 53.0947 71.6703 50.5804 71.6703L50.5778 71.6781ZM35.4299 63.6074C37.0888 63.6074 40.4118 61.5231 45.3911 57.3544L45.1889 57.0178C44.9193 56.6605 44.5176 56.4792 43.9784 56.4792C43.53 56.4792 43.0816 56.5698 42.6332 56.7485C40.4792 57.4657 38.4807 58.7888 36.6404 60.7152C36.1453 61.2978 35.7876 61.7898 35.5646 62.1937C35.2044 62.7763 35.0255 63.2242 35.0255 63.5375C35.1136 63.5815 35.2484 63.6048 35.4299 63.6048V63.6074Z" fill="black"/>
<path d="M74.7439 71.6783C73.5335 71.6783 72.4318 71.4531 71.4443 71.0051C69.5598 70.1067 68.3908 68.6722 67.9424 66.7018C67.8517 66.2539 67.8076 65.8292 67.8076 65.4253C67.8076 63.0484 68.6604 60.4928 70.366 57.7586C70.366 57.6679 70.41 57.5799 70.5008 57.4893C74.674 50.721 80.1717 44.6466 86.994 39.2662C90.2262 36.7106 92.7146 35.4341 94.4668 35.4341C95.0941 35.4341 95.654 35.6127 96.1491 35.9726C96.6416 36.3326 96.8904 36.8245 96.8904 37.4511C96.8904 38.0337 96.6441 38.7535 96.1491 39.6028C95.0734 41.4411 91.7296 44.5793 86.1204 49.0173C82.4397 51.9328 78.2899 55.0476 73.6682 58.3644L72.6599 59.105C71.2239 61.6165 70.5059 63.6776 70.5059 65.2907C70.5059 66.8131 71.2006 67.9343 72.5925 68.6515C73.2198 68.9648 73.9378 69.1227 74.7465 69.1227C78.6501 69.1227 84.617 65.7153 92.6524 58.9004C93.4144 58.2738 94.021 57.7896 94.4694 57.4556C94.9178 57.119 95.2781 56.9507 95.5451 56.9507C95.9495 56.9507 96.2735 57.1087 96.5223 57.4219C96.7686 57.7352 96.893 58.0278 96.893 58.2971C96.893 58.701 96.7245 59.035 96.3875 59.3043C96.0506 59.5736 95.6125 59.9335 95.076 60.3815L93.1915 61.8599C90.5425 64.1462 87.4035 66.4092 83.7669 68.6515C80.2676 70.6685 77.2582 71.6783 74.7465 71.6783H74.7439ZM78.4454 51.6402L80.532 50.0271C85.4232 46.3063 89.0132 43.3468 91.3019 41.1511C92.7379 39.7607 93.5441 38.9089 93.7255 38.5956V38.5282C93.7255 38.3936 93.6581 38.3263 93.5233 38.3263C92.5798 38.5515 90.8302 39.6494 88.2718 41.6198C84.6378 44.6233 81.6751 47.4249 79.3863 50.0245L78.8472 50.6304L78.2406 51.3709C78.2406 51.5495 78.308 51.6402 78.4428 51.6402H78.4454Z" fill="black"/>
<path d="M103.735 2.40527H2.26465V103.766H103.735V2.40527Z" stroke="black" stroke-width="3" stroke-miterlimit="10"/>
</svg>
