<?xml version="1.0" encoding="UTF-8"?>
<svg version="1.1" xmlns="http://www.w3.org/2000/svg" width="239" height="240">
<path d="M0 0 C1.20432253 0.00138269 1.20432253 0.00138269 2.43297482 0.00279331 C3.810751 0.00073132 3.810751 0.00073132 5.21636105 -0.00137234 C6.73981388 0.00402058 6.73981388 0.00402058 8.29404354 0.00952244 C9.35732876 0.00937641 10.42061398 0.00923038 11.51611996 0.00907993 C15.04945535 0.00977958 18.58273878 0.0175744 22.11606503 0.02539158 C24.55844246 0.02725557 27.00082026 0.02867956 29.4431982 0.0296793 C35.88600342 0.03350594 42.32878626 0.04333746 48.7715826 0.05438328 C55.34018304 0.06459427 61.90878707 0.06917625 68.47739315 0.0742197 C81.37649127 0.0849596 94.27557383 0.10184679 107.17465878 0.12304783 C108.69180688 3.15734403 108.30626964 6.00150515 108.29965878 9.37304783 C108.3022369 10.67757908 108.30481503 11.98211033 108.30747128 13.32617283 C108.17465878 17.12304783 108.17465878 17.12304783 107.17465878 23.12304783 C96.61465878 23.12304783 86.05465878 23.12304783 75.17465878 23.12304783 C75.17465878 25.76304783 75.17465878 28.40304783 75.17465878 31.12304783 C75.92998898 31.10829914 76.68531918 31.09355045 77.46353817 31.07835484 C84.58481753 30.94025398 91.70616557 30.80729052 98.82764721 30.68008423 C102.48878823 30.61450679 106.14987031 30.54694951 109.81088924 30.47485447 C113.34453455 30.40534082 116.87823994 30.34104501 120.41204739 30.28035259 C122.41511866 30.24459086 124.41809134 30.20343824 126.4210577 30.16221714 C127.64202145 30.14212086 128.86298519 30.12202457 130.12094784 30.10131931 C131.19572384 30.08133381 132.27049984 30.0613483 133.37784481 30.04075718 C135.83748392 30.11312713 137.83459609 30.40349771 140.17465878 31.12304783 C140.19973619 37.34456191 140.21769361 43.56604534 140.22959042 49.78759861 C140.23456003 51.89567675 140.24133804 54.00375156 140.25009823 56.11181736 C140.30286864 69.15542215 140.08688794 82.10912692 139.17465878 95.12304783 C142.63965878 94.62804783 142.63965878 94.62804783 146.17465878 94.12304783 C146.50465878 83.89304783 146.83465878 73.66304783 147.17465878 63.12304783 C157.56965878 62.62804783 157.56965878 62.62804783 168.17465878 62.12304783 C170.42470114 67.74815375 170.42470114 67.74815375 170.42189693 71.43563938 C170.42609142 72.26539783 170.43028591 73.09515629 170.43460751 73.95005894 C170.428988 74.84680836 170.42336849 75.74355778 170.4175787 76.66748142 C170.41947704 77.62257099 170.42137539 78.57766056 170.42333126 79.56169224 C170.42703202 82.71504045 170.41634265 85.86815762 170.40512753 89.02148533 C170.40393496 91.21717394 170.40348273 93.41286306 170.40373898 95.60855198 C170.40217519 100.21009612 170.39389481 104.81156235 170.38046932 109.41308689 C170.36349978 115.30314519 170.35965454 121.19311772 170.36041451 127.08319759 C170.36014214 131.61800037 170.35464988 136.1527845 170.34741306 140.68758106 C170.34423686 142.85884173 170.34226144 145.03010451 170.34151936 147.20136738 C170.33934354 150.24088962 170.33057191 153.28032229 170.31992245 156.31982517 C170.32037563 157.21252613 170.32082882 158.10522709 170.32129574 159.02497959 C170.29677016 163.8288949 169.98020347 168.38532431 169.17465878 173.12304783 C165.69591121 173.31895227 162.21664974 173.50336375 158.73715878 173.68554783 C157.74393612 173.74162205 156.75071346 173.79769627 155.72739315 173.8554697 C154.78315487 173.90380955 153.83891659 173.95214939 152.86606503 174.00195408 C151.99151669 174.04908543 151.11696835 174.09621677 150.21591854 174.14477634 C148.17465878 174.12304783 148.17465878 174.12304783 147.17465878 173.12304783 C147.08626207 170.74736263 147.05935572 168.40096109 147.07700253 166.02539158 C147.07912495 164.96210384 147.07912495 164.96210384 147.08129025 163.87733555 C147.08690435 161.6050307 147.09945915 159.33282308 147.11215878 157.06054783 C147.11717196 155.52343987 147.12173518 153.98633038 147.12583065 152.4492197 C147.13687835 148.67379141 147.15415236 144.89843612 147.17465878 141.12304783 C145.52465878 141.12304783 143.87465878 141.12304783 142.17465878 141.12304783 C137.44647828 150.57940883 140.09447413 167.06449799 140.17465878 177.49804783 C140.20145375 181.02669086 140.22131438 184.55527803 140.23715878 188.08398533 C140.24960629 189.26859852 140.24960629 189.26859852 140.26230526 190.47714329 C140.28406401 195.45067716 139.88577746 200.1991109 139.17465878 205.12304783 C118.16447037 206.1342909 97.20366233 206.23907238 76.17465878 206.12304783 C76.50465878 208.43304783 76.83465878 210.74304783 77.17465878 213.12304783 C77.87228329 212.95555027 78.5699078 212.78805271 79.28867245 212.61547947 C82.41153016 212.08263081 85.18709629 212.10389481 88.35044003 212.24414158 C89.50737362 212.29248142 90.66430721 212.34082127 91.8562994 212.39062595 C93.05448299 212.44670017 94.25266659 212.50277439 95.48715878 212.56054783 C96.70467831 212.61275486 97.92219784 212.66496189 99.1766119 212.71875095 C102.1761974 212.84814484 105.17546438 212.98488508 108.17465878 213.12304783 C107.84465878 220.38304783 107.51465878 227.64304783 107.17465878 235.12304783 C103.7144391 235.81509176 101.20907323 236.24826741 97.8106451 236.25003147 C96.96958218 236.2528513 96.12851925 236.25567112 95.26196957 236.25857639 C93.89810619 236.25554005 93.89810619 236.25554005 92.50669003 236.25244236 C91.05460644 236.25507084 91.05460644 236.25507084 89.57318783 236.25775242 C86.3778265 236.26214847 83.18252066 236.25924082 79.98715878 236.25586033 C77.76425828 236.25653401 75.54135785 236.25750458 73.3184576 236.2587595 C68.66146804 236.26023343 64.00449767 236.25809168 59.34751034 236.25341892 C53.37879057 236.24772183 47.41011578 236.25100246 41.44139767 236.25699139 C36.85177935 236.2606052 32.2621717 236.25945463 27.67255306 236.25686359 C25.471727 236.2561966 23.27089997 236.25701481 21.07007504 236.25934315 C17.99423313 236.26188308 14.91846401 236.25801006 11.84262753 236.25244236 C10.93338528 236.25446659 10.02414303 236.25649082 9.08734798 236.25857639 C4.9858393 236.2448253 1.17449791 236.16093268 -2.82534122 235.12304783 C-3.02174433 231.83184848 -3.20594867 228.54007849 -3.38784122 225.24804783 C-3.44391544 224.31089939 -3.49998966 223.37375095 -3.5577631 222.40820408 C-3.60610294 221.51230564 -3.65444279 220.6164072 -3.70424747 219.69336033 C-3.75137882 218.86594334 -3.79851017 218.03852634 -3.84706974 217.18603611 C-3.82534122 215.12304783 -3.82534122 215.12304783 -2.82534122 213.12304783 C0.90585422 212.06207414 4.49014275 212.00637534 8.35044003 212.02539158 C9.50737362 212.02861423 10.66430721 212.03183689 11.8562994 212.0351572 C13.05448299 212.04353611 14.25266659 212.05191502 15.48715878 212.06054783 C17.31343807 212.06731541 17.31343807 212.06731541 19.1766119 212.0742197 C22.17601103 212.08598205 25.17530966 212.10241957 28.17465878 212.12304783 C28.17465878 210.14304783 28.17465878 208.16304783 28.17465878 206.12304783 C26.21798275 206.13090305 26.21798275 206.13090305 24.22177792 206.13891697 C19.29958461 206.15726083 14.37739419 206.16858521 9.45517635 206.17797947 C7.3402623 206.18295347 5.22535158 206.18973505 3.11044979 206.19848728 C-9.57631529 206.24960722 -22.17139362 206.07690621 -34.82534122 205.12304783 C-35.89981327 198.16314587 -35.95424541 191.34422973 -35.92299747 184.31054783 C-35.92158253 183.10108494 -35.92016758 181.89162205 -35.91870975 180.64550877 C-35.91313832 176.80466268 -35.90059106 172.96387613 -35.88784122 169.12304783 C-35.88282253 166.50976742 -35.87826027 163.8964861 -35.87416935 161.28320408 C-35.86317824 154.89646521 -35.84646866 148.50976078 -35.82534122 142.12304783 C-38.13534122 141.79304783 -40.44534122 141.46304783 -42.82534122 141.12304783 C-42.78981144 141.8740073 -42.75428165 142.62496677 -42.71767521 143.39868259 C-42.5592901 146.82736326 -42.41097999 150.25640981 -42.26284122 153.68554783 C-42.20676701 154.86697361 -42.15069279 156.04839939 -42.09291935 157.26562595 C-41.85051488 163.03485245 -41.70018439 168.44725666 -42.82534122 174.12304783 C-45.17958798 174.1503171 -47.53351084 174.17001502 -49.88784122 174.18554783 C-51.85430607 174.20295017 -51.85430607 174.20295017 -53.86049747 174.22070408 C-57.60423791 174.12849372 -61.12834483 173.68449394 -64.82534122 173.12304783 C-65.83160409 160.40124957 -65.95704349 147.75360267 -65.92299747 134.99804783 C-65.92112758 132.91341276 -65.91970638 130.82877725 -65.91870975 128.74414158 C-65.91492955 123.31261023 -65.90513882 117.88110651 -65.89400578 112.44958591 C-65.88369383 106.88501452 -65.87919138 101.32043857 -65.87416935 95.75586033 C-65.86351156 84.87824416 -65.84649062 74.00064831 -65.82534122 63.12304783 C-62.81790803 62.31792356 -60.39517157 62.0546122 -57.27846622 62.24414158 C-56.43413029 62.29248142 -55.58979435 62.34082127 -54.71987247 62.39062595 C-53.84717716 62.44670017 -52.97448185 62.50277439 -52.07534122 62.56054783 C-51.18717716 62.61275486 -50.2990131 62.66496189 -49.38393497 62.71875095 C-47.19734926 62.84806516 -45.01126229 62.98301425 -42.82534122 63.12304783 C-41.94732945 73.15746816 -41.70771073 83.05910536 -41.82534122 93.12304783 C-40.50534122 93.12304783 -39.18534122 93.12304783 -37.82534122 93.12304783 C-37.82534122 93.78304783 -37.82534122 94.44304783 -37.82534122 95.12304783 C-36.83534122 95.12304783 -35.84534122 95.12304783 -34.82534122 95.12304783 C-34.89680363 93.87177097 -34.96826603 92.62049412 -35.04189396 91.33129978 C-35.76393266 77.97986209 -35.94839414 64.67903245 -35.88784122 51.31054783 C-35.8828052 49.33463753 -35.87824609 47.35872596 -35.87416935 45.38281345 C-35.86335549 40.62952563 -35.84621277 35.87630168 -35.82534122 31.12304783 C-32.54438948 30.02939725 -30.24364338 30.03833237 -26.7933588 30.10131931 C-25.55229877 30.1214156 -24.31123875 30.14151188 -23.03257084 30.16221714 C-21.6783358 30.18941334 -20.32410306 30.21672419 -18.96987247 30.24414158 C-17.5841128 30.26844821 -16.19834492 30.2922915 -14.81256962 30.31569004 C-11.16778559 30.37847701 -7.52314698 30.4475588 -3.87850285 30.51794529 C-0.15837563 30.58867746 3.56185457 30.65346518 7.28208065 30.71875095 C14.5797206 30.84769383 21.87721716 30.98328593 29.17465878 31.12304783 C29.17465878 28.48304783 29.17465878 25.84304783 29.17465878 23.12304783 C18.61465878 23.12304783 8.05465878 23.12304783 -2.82534122 23.12304783 C-3.98323596 8.07041625 -3.98323596 8.07041625 -2.82534122 1.12304783 C-1.82534122 0.12304783 -1.82534122 0.12304783 0 0 Z M4.17465878 8.12304783 C4.17465878 10.76304783 4.17465878 13.40304783 4.17465878 16.12304783 C14.40465878 16.12304783 24.63465878 16.12304783 35.17465878 16.12304783 C35.66965878 26.51804783 35.66965878 26.51804783 36.17465878 37.12304783 C32.23515937 37.91094771 29.2391152 38.24100955 25.29868221 38.22070408 C23.56228481 38.21574924 23.56228481 38.21574924 21.79080868 38.21069431 C19.9312051 38.1982468 19.9312051 38.1982468 18.03403378 38.18554783 C16.75610958 38.18176121 15.47818539 38.17797459 14.16153622 38.17407322 C10.08254196 38.16185786 6.00361812 38.14341148 1.92465878 38.12304783 C-3.45554461 38.09628848 -8.83571704 38.07653795 -14.21596622 38.06054783 C-16.08771519 38.04810032 -16.08771519 38.04810032 -17.99727726 38.03540134 C-19.14226688 38.03209812 -20.28725651 38.0287949 -21.46694279 38.02539158 C-22.48000492 38.02015476 -23.49306705 38.01491795 -24.53682804 38.00952244 C-26.7907185 37.86469035 -26.7907185 37.86469035 -27.82534122 39.12304783 C-27.91934792 41.08673936 -27.94277504 43.05383982 -27.93886662 45.01977634 C-27.93875332 46.91162411 -27.93875332 46.91162411 -27.93863773 48.84169102 C-27.93353032 50.22844577 -27.92831432 51.61520012 -27.92299747 53.00195408 C-27.92113324 54.41299992 -27.91970936 55.8240464 -27.91870975 57.23509312 C-27.91488502 60.95545318 -27.90505512 64.67577443 -27.89400578 68.39611912 C-27.8837907 72.18985564 -27.87921193 75.98359841 -27.87416935 79.7773447 C-27.8634328 87.22593219 -27.84583637 94.67447963 -27.82534122 102.12304783 C-35.08534122 102.12304783 -42.34534122 102.12304783 -49.82534122 102.12304783 C-49.82534122 91.56304783 -49.82534122 81.00304783 -49.82534122 70.12304783 C-52.46534122 70.12304783 -55.10534122 70.12304783 -57.82534122 70.12304783 C-57.82534122 101.80304783 -57.82534122 133.48304783 -57.82534122 166.12304783 C-55.18534122 166.12304783 -52.54534122 166.12304783 -49.82534122 166.12304783 C-49.82534122 155.56304783 -49.82534122 145.00304783 -49.82534122 134.12304783 C-42.56534122 134.12304783 -35.30534122 134.12304783 -27.82534122 134.12304783 C-27.82534122 155.24304783 -27.82534122 176.36304783 -27.82534122 198.12304783 C-6.70534122 198.12304783 14.41465878 198.12304783 36.17465878 198.12304783 C36.17465878 205.38304783 36.17465878 212.64304783 36.17465878 220.12304783 C33.26653378 220.09211033 33.26653378 220.09211033 30.29965878 220.06054783 C21.56916638 220.05160265 12.88500374 220.57001005 4.17465878 221.12304783 C4.13211521 223.12259529 4.13385095 225.12346419 4.17465878 227.12304783 C6.05024677 228.99863583 8.75754595 228.24967762 11.25333309 228.25857639 C12.12713619 228.25655216 13.00093929 228.25452793 13.90122128 228.25244236 C14.81659664 228.25419468 15.73197201 228.255947 16.67508602 228.25775242 C19.71662926 228.26217243 22.75811489 228.25923242 25.79965878 228.25586033 C27.90333728 228.25653332 30.0070157 228.25750331 32.11069393 228.2587595 C36.52590326 228.26023667 40.94109241 228.25808128 45.3562994 228.25341892 C51.02958438 228.24772163 56.70282206 228.25100053 62.37610531 228.25699139 C66.72194433 228.26059647 71.06777206 228.25945866 75.41361141 228.25686359 C77.50610007 228.25619418 79.59858975 228.25702325 81.69107723 228.25934315 C84.61011143 228.2618688 87.5290679 228.25803031 90.44809628 228.25244236 C91.32189938 228.25446659 92.19570248 228.25649082 93.09598446 228.25857639 C96.94542119 228.62415673 96.94542119 228.62415673 100.17465878 227.12304783 C100.2154666 225.12346419 100.21720234 223.12259529 100.17465878 221.12304783 C98.77389095 221.04787937 98.77389095 221.04787937 97.34482479 220.97119236 C93.89101789 220.78128788 90.43792953 220.58280849 86.98496151 220.37841892 C85.48841369 220.29162012 83.99166136 220.20827714 82.49472713 220.12841892 C80.34704508 220.01325027 78.20039734 219.88580345 76.05356503 219.75586033 C74.76007137 219.6825449 73.46657772 219.60922947 72.13388729 219.53369236 C71.15734188 219.39817966 70.18079647 219.26266697 69.17465878 219.12304783 C68.03520361 216.8441375 68.04571664 215.55522679 68.04184628 213.02539158 C68.04055721 212.22423923 68.03926815 211.42308689 68.03794003 210.5976572 C68.04180721 209.76041111 68.0456744 208.92316502 68.04965878 208.06054783 C68.04579159 207.21943455 68.0419244 206.37832127 68.03794003 205.5117197 C68.04803196 199.24967464 68.04803196 199.24967464 69.17465878 198.12304783 C71.13835031 198.02904113 73.10545077 198.00561402 75.07138729 198.00952244 C76.33261913 198.00959797 77.59385098 198.0096735 78.89330196 198.00975132 C80.28005671 198.01485873 81.66681106 198.02007474 83.05356503 198.02539158 C84.46461086 198.02725582 85.87565735 198.02867969 87.28670406 198.0296793 C91.00706413 198.03350404 94.72738538 198.04333393 98.44773006 198.05438328 C102.24146658 198.06459835 106.03520935 198.06917712 109.82895565 198.0742197 C117.27754109 198.08495625 124.7260945 198.10203213 132.17465878 198.12304783 C132.17243816 197.36327641 132.17021755 196.60350498 132.16792965 195.82071018 C132.14791328 188.66928752 132.13267776 181.51787839 132.1228466 174.36643505 C132.11762246 170.68959072 132.11053328 167.01276949 132.09921932 163.33593845 C132.08837384 159.78925823 132.0823784 156.24260026 132.07978153 152.69590473 C132.07793029 151.341086 132.0743154 149.98626852 132.06892872 148.63145924 C132.0616964 146.73755418 132.06125053 144.84362685 132.06113338 142.94970798 C132.05891277 141.87049076 132.05669216 140.79127354 132.05440426 139.67935276 C132.17465878 137.12304783 132.17465878 137.12304783 133.17465878 135.12304783 C140.10465878 135.12304783 147.03465878 135.12304783 154.17465878 135.12304783 C154.17465878 145.35304783 154.17465878 155.58304783 154.17465878 166.12304783 C156.81465878 166.12304783 159.45465878 166.12304783 162.17465878 166.12304783 C162.17465878 134.44304783 162.17465878 102.76304783 162.17465878 70.12304783 C159.53465878 70.12304783 156.89465878 70.12304783 154.17465878 70.12304783 C154.17465878 80.68304783 154.17465878 91.24304783 154.17465878 102.12304783 C146.58465878 102.12304783 138.99465878 102.12304783 131.17465878 102.12304783 C131.50465878 100.47304783 131.83465878 98.82304783 132.17465878 97.12304783 C132.25901993 95.1299259 132.2924559 93.13430715 132.28818417 91.13940525 C132.28800289 89.34351963 132.28800289 89.34351963 132.28781796 87.51135349 C132.28270199 86.26301731 132.27758602 85.01468113 132.27231503 83.72851658 C132.27130795 82.57371799 132.27030087 81.41891941 132.26926327 80.22912693 C132.26403849 75.92292377 132.25007722 71.61673478 132.23715878 67.31054783 C132.21653378 57.67867283 132.19590878 48.04679783 132.17465878 38.12304783 C111.05465878 38.12304783 89.93465878 38.12304783 68.17465878 38.12304783 C68.50465878 30.86304783 68.83465878 23.60304783 69.17465878 16.12304783 C79.40465878 16.12304783 89.63465878 16.12304783 100.17465878 16.12304783 C100.17465878 13.48304783 100.17465878 10.84304783 100.17465878 8.12304783 C68.49465878 8.12304783 36.81465878 8.12304783 4.17465878 8.12304783 Z " fill="#010101" transform="translate(67.82534122467041,2.8769521713256836)"/>
<path d="M0 0 C3 1 3 1 4.39453125 3.40625 C4.86246094 4.4271875 5.33039063 5.448125 5.8125 6.5 C8.06396086 11.20861074 10.52488502 15.4347818 13.4921875 19.71484375 C15.7628951 23.15620112 17.67143534 26.77396946 19.609375 30.41015625 C20.81756203 32.66023491 22.07678168 34.863757 23.375 37.0625 C25 40 25 40 25 42 C26.29091553 41.83701416 27.58183105 41.67402832 28.91186523 41.50610352 C33.76179617 40.9692739 38.53496508 40.87114929 43.41015625 40.90234375 C44.26306747 40.9037587 45.1159787 40.90517365 45.99473572 40.90663147 C48.68402816 40.91217061 51.37323328 40.9247112 54.0625 40.9375 C55.90038941 40.94252288 57.73828015 40.9470844 59.57617188 40.95117188 C64.05081422 40.96212 68.52539238 40.97934161 73 41 C73.33 41.66 73.66 42.32 74 43 C73.08089564 45.24938698 72.10905671 47.34592512 71 49.5 C70.51732666 50.45156982 70.51732666 50.45156982 70.02490234 51.42236328 C67.66312323 55.97204113 64.93604209 60.07494221 61.91796875 64.21875 C59.41846027 67.84329183 57.15546367 71.5731423 54.9375 75.375 C54.51871582 76.06577637 54.09993164 76.75655273 53.66845703 77.46826172 C52.3597419 79.66704104 52.3597419 79.66704104 51 83 C51.4777438 85.23685544 51.4777438 85.23685544 53 87 C53.39058594 87.804375 53.78117187 88.60875 54.18359375 89.4375 C54.59738281 90.283125 55.01117188 91.12875 55.4375 92 C55.84871094 92.845625 56.25992188 93.69125 56.68359375 94.5625 C57.89930899 96.97340391 57.89930899 96.97340391 59.4140625 98.8203125 C62.13970584 102.56639374 63.94655415 106.81673483 65.95117188 110.98046875 C67.54909206 114.25020139 69.16171559 117.3372595 71.25390625 120.3203125 C73 123 73 123 73 126 C67.7027207 127.09507419 62.6066883 127.12893641 57.2265625 127.09765625 C56.3028183 127.0962413 55.3790741 127.09482635 54.42733765 127.09336853 C51.49319138 127.08779609 48.55912299 127.07524869 45.625 127.0625 C43.62890736 127.05748144 41.63281351 127.05291915 39.63671875 127.04882812 C34.75778275 127.03783569 29.87890455 127.0205901 25 127 C24.55406494 128.14770874 24.55406494 128.14770874 24.09912109 129.31860352 C22.84825684 132.37018994 21.29944075 135.0968003 19.625 137.9375 C19.00367188 138.99195313 18.38234375 140.04640625 17.7421875 141.1328125 C16.4602703 143.2425148 15.16041996 145.28980471 13.75 147.3125 C11.73025005 150.41425885 10.4047895 153.57964295 9 157 C7.14674288 161.10939623 5.36625029 163.98198249 2 167 C-2.65034229 165.4498859 -4.36654019 162.1318009 -6.703125 157.95703125 C-7.46882813 156.40048828 -7.46882813 156.40048828 -8.25 154.8125 C-8.77078125 153.76707031 -9.2915625 152.72164062 -9.828125 151.64453125 C-11 149 -11 149 -11 147 C-11.66 146.67 -12.32 146.34 -13 146 C-14.19906071 144.11617449 -15.33597701 142.19247065 -16.4375 140.25 C-17.03433594 139.20328125 -17.63117188 138.1565625 -18.24609375 137.078125 C-19.11427734 135.55445313 -19.11427734 135.55445313 -20 134 C-20.56847656 133.08734375 -21.13695312 132.1746875 -21.72265625 131.234375 C-23 129 -23 129 -23 127 C-23.57185028 127.00222061 -24.14370056 127.00444122 -24.73287964 127.00672913 C-30.66973243 127.02880483 -36.60657362 127.0439162 -42.54345703 127.05493164 C-44.76090976 127.05996909 -46.97835916 127.06679922 -49.19580078 127.07543945 C-52.37793805 127.08753072 -55.56003151 127.0932341 -58.7421875 127.09765625 C-59.73805878 127.10281754 -60.73393005 127.10797882 -61.75997925 127.11329651 C-63.14118454 127.11340981 -63.14118454 127.11340981 -64.55029297 127.11352539 C-65.3630368 127.115746 -66.17578064 127.11796661 -67.01315308 127.12025452 C-69 127 -69 127 -71 126 C-70.44042587 122.39106124 -69.54941686 119.92573354 -67.5625 116.875 C-63.92378901 111.03367945 -60.77354373 104.96811734 -57.60375977 98.86474609 C-55.16654934 94.18087516 -52.65259108 89.56563487 -50 85 C-49.34 85 -48.68 85 -48 85 C-48.495 84.05125 -48.99 83.1025 -49.5 82.125 C-51 79 -51 79 -51 77 C-51.66 77 -52.32 77 -53 77 C-53.67154933 75.71086513 -54.33708859 74.41859796 -55 73.125 C-55.37125 72.40570313 -55.7425 71.68640625 -56.125 70.9453125 C-57 69 -57 69 -57 67 C-57.66 66.67 -58.32 66.34 -59 66 C-60.1952857 64.28339692 -61.33314549 62.52646704 -62.4375 60.75 C-63.03433594 59.79609375 -63.63117187 58.8421875 -64.24609375 57.859375 C-64.82488281 56.91578125 -65.40367188 55.9721875 -66 55 C-66.53367187 54.14535156 -67.06734375 53.29070312 -67.6171875 52.41015625 C-69.54049261 49.05795497 -70.70523901 45.63766183 -72 42 C-68.05314935 40.68438312 -64.28176048 40.8572817 -60.16796875 40.8671875 C-59.29860184 40.86623077 -58.42923492 40.86527405 -57.53352356 40.86428833 C-55.69349088 40.8636078 -53.8534558 40.86545323 -52.01342773 40.86962891 C-49.20876606 40.87495958 -46.40426594 40.86968964 -43.59960938 40.86328125 C-41.80989548 40.86394243 -40.02018169 40.86522443 -38.23046875 40.8671875 C-36.97861031 40.86415115 -36.97861031 40.86415115 -35.70146179 40.86105347 C-31.35484961 40.87838156 -27.28034834 41.13142352 -23 42 C-22.74089844 41.29617187 -22.48179688 40.59234375 -22.21484375 39.8671875 C-20.90011851 36.76426685 -19.3040985 34.0089373 -17.5625 31.125 C-14.72375742 26.35494809 -14.72375742 26.35494809 -12.4375 21.3125 C-10.8184798 17.58171432 -8.72323318 14.49176529 -6.4296875 11.1484375 C-3.17743298 6.43073435 -3.17743298 6.43073435 -2 1 C-1.34 0.67 -0.68 0.34 0 0 Z M0 14 C-1.33838733 16.45570175 -2.67086232 18.91429916 -4 21.375 C-4.3815625 22.07367188 -4.763125 22.77234375 -5.15625 23.4921875 C-7.25724744 27.0428946 -7.25724744 27.0428946 -8 31 C-8.66 31 -9.32 31 -10 31 C-10.83848804 32.45537568 -11.67063934 33.91440373 -12.5 35.375 C-12.9640625 36.18710938 -13.428125 36.99921875 -13.90625 37.8359375 C-15.15035859 39.89336874 -15.15035859 39.89336874 -15 42 C-4.53559433 42.25657142 -4.53559433 42.25657142 5.875 41.4375 C9 41 9 41 11 42 C12.99960012 42.039992 15.00047242 42.04346799 17 42 C14.70218691 35.32416232 14.70218691 35.32416232 10.6328125 29.76953125 C8.20922059 27.143007 6.84605084 24.0044628 5.3125 20.8125 C4.99216797 20.15830078 4.67183594 19.50410156 4.34179688 18.83007812 C3.55571708 17.22272093 2.77711317 15.61171142 2 14 C1.34 14 0.68 14 0 14 Z M-59 49 C-55.06493582 58.83766046 -49.48932055 68.60996131 -43 77 C-42.731875 76.071875 -42.46375 75.14375 -42.1875 74.1875 C-41.02963755 71.07955343 -40.22831639 70.22831639 -38 68 C-37.27802838 65.39388923 -37.27802838 65.39388923 -37 63 C-36.34 63 -35.68 63 -35 63 C-33.9923048 61.2335343 -32.99408286 59.46166177 -32 57.6875 C-31.443125 56.70136719 -30.88625 55.71523437 -30.3125 54.69921875 C-28.78135247 52.05057529 -28.78135247 52.05057529 -29 49 C-38.9 49 -48.8 49 -59 49 Z M-5.625 48.4375 C-7.02471583 48.49086112 -8.42445553 48.54359992 -9.82421875 48.59570312 C-13.21643041 48.72437322 -16.60827006 48.85928947 -20 49 C-20.39832031 49.81984375 -20.79664062 50.6396875 -21.20703125 51.484375 C-21.73683594 52.56203125 -22.26664063 53.6396875 -22.8125 54.75 C-23.33457031 55.81734375 -23.85664062 56.8846875 -24.39453125 57.984375 C-25.76657969 60.56155602 -27.20140878 62.71717268 -29 65 C-29.98723691 66.71282907 -30.94387641 68.44353068 -31.875 70.1875 C-34.97113982 75.96526912 -34.97113982 75.96526912 -36.57104492 77.890625 C-38.39676787 80.32754019 -39.38634478 82.00263638 -40 85 C-38.33647015 90.04355572 -35.4872115 94.24478429 -32.5625 98.625 C-31.79922741 99.82329422 -31.039423 101.02380501 -30.28320312 102.2265625 C-28.8767929 104.45639635 -27.44972323 106.66555448 -26.00219727 108.86962891 C-23.8785275 112.18991836 -21.92996368 115.56433538 -20 119 C-14.1840613 119.37289013 -8.37514936 119.64378714 -2.55004883 119.82397461 C-0.57323034 119.89909274 1.40276297 120.00124151 3.37670898 120.1315918 C14.0986436 121.23288347 14.0986436 121.23288347 23.7442627 117.60217285 C26.71670768 114.0548013 28.57135444 110.06631816 30.27285767 105.79019165 C31.15867921 103.60933894 32.28884925 101.64942912 33.5234375 99.6484375 C34.13445312 98.56820312 34.74546875 97.48796875 35.375 96.375 C37.11943138 93.29532485 38.8559771 90.231349 40.7265625 87.2265625 C42.16548897 85.13814807 42.16548897 85.13814807 42 83 C41.566875 82.57332031 41.13375 82.14664063 40.6875 81.70703125 C38.58137304 79.57652782 37.40396932 77.33091099 36 74.6875 C35.47535156 73.70523438 34.95070313 72.72296875 34.41015625 71.7109375 C33.39411956 69.75767029 32.40660419 67.78947254 31.4375 65.8125 C29.51336464 62.04788734 27.33244825 58.52318759 25 55 C24.64292969 54.40316406 24.28585938 53.80632812 23.91796875 53.19140625 C22.34421119 50.87247726 20.8549017 49.21648053 18.0871582 48.515625 C10.16785405 47.81206269 2.30424689 48.10656473 -5.625 48.4375 Z M31 49 C31.58107632 52.7602985 32.65199496 55.53035032 34.5625 58.8125 C35.01753906 59.60269531 35.47257812 60.39289063 35.94140625 61.20703125 C36.29074219 61.79871094 36.64007813 62.39039063 37 63 C37.66 63 38.32 63 39 63 C39.2475 63.86625 39.495 64.7325 39.75 65.625 C41.25173905 69.67969543 42.9784662 73.9892331 47 76 C47.433125 74.2984375 47.433125 74.2984375 47.875 72.5625 C48.24625 71.386875 48.6175 70.21125 49 69 C49.66 68.67 50.32 68.34 51 68 C55.37152931 62.26332645 58.13646642 55.56642658 61 49 C57.12545823 48.8020995 53.2503638 48.6185291 49.375 48.4375 C48.28058594 48.38142578 47.18617188 48.32535156 46.05859375 48.26757812 C44.99511719 48.21923828 43.93164062 48.17089844 42.8359375 48.12109375 C41.37486572 48.05039673 41.37486572 48.05039673 39.88427734 47.97827148 C36.82500193 48.00131834 34.0000999 48.42215975 31 49 Z M-44 91 C-44.90080258 92.21682185 -45.74592761 93.47512345 -46.5625 94.75 C-47.01753906 95.44609375 -47.47257812 96.1421875 -47.94140625 96.859375 C-49.29552235 99.19957535 -49.29552235 99.19957535 -49 103 C-49.99 103.33 -50.98 103.66 -52 104 C-53.51324159 106.31470989 -54.86985395 108.57915301 -56.1875 111 C-56.55552734 111.65484375 -56.92355469 112.3096875 -57.30273438 112.984375 C-59.17911488 115.83096781 -59.17911488 115.83096781 -60 119 C-49.44 119 -38.88 119 -28 119 C-29.46819933 116.06360135 -30.96131082 113.39636125 -32.6875 110.625 C-36.53110181 104.28542961 -39.75661982 97.65948475 -43 91 C-43.33 91 -43.66 91 -44 91 Z M45 91 C43.20771701 94.41634371 41.41628127 97.83313098 39.625 101.25 C39.11710937 102.21808594 38.60921875 103.18617188 38.0859375 104.18359375 C37.35117188 105.58544922 37.35117188 105.58544922 36.6015625 107.015625 C35.92601318 108.30388184 35.92601318 108.30388184 35.23681641 109.61816406 C34.82866699 110.40416992 34.42051758 111.19017578 34 112 C33.61634277 112.70092773 33.23268555 113.40185547 32.83740234 114.12402344 C31.79619227 116.114178 31.79619227 116.114178 32 119 C41.9 119 51.8 119 62 119 C57.609055 110.9375762 57.609055 110.9375762 53 103 C52.34 103 51.68 103 51 103 C50.87625 101.700625 50.87625 101.700625 50.75 100.375 C49.89052416 96.50735871 48.38645712 94.13222497 46 91 C45.67 91 45.34 91 45 91 Z M30 117 C31 119 31 119 31 119 Z M-13 126 C-14.40096246 129.07242053 -14.40096246 129.07242053 -12.5625 132.1875 C-12.046875 133.115625 -11.53125 134.04375 -11 135 C-10.34 135 -9.68 135 -9 135 C-8.87818359 136.02673828 -8.87818359 136.02673828 -8.75390625 137.07421875 C-7.80373903 140.76165528 -5.97902984 143.64971542 -3.9375 146.8125 C-3.56044922 147.40998047 -3.18339844 148.00746094 -2.79492188 148.62304688 C-1.87010434 150.08636577 -0.93597935 151.54379523 0 153 C3.02534859 152.34454687 3.02534859 152.34454687 4.02734375 150.36328125 C4.32769531 149.68652344 4.62804687 149.00976562 4.9375 148.3125 C6.17563775 145.64719584 7.35717046 143.49130267 9.0625 141.0625 C11.17263404 137.72712685 12.2152236 134.62653829 13.2890625 130.85546875 C14 129 14 129 16 128 C10.12905562 125.42003482 4.40390015 125.77447574 -1.875 125.875 C-2.94492188 125.88402344 -4.01484375 125.89304687 -5.1171875 125.90234375 C-7.74502439 125.92580658 -10.37239406 125.95863541 -13 126 Z " fill="#010101" transform="translate(119,37)"/>
<path d="M0 0 C3.51463012 1.89980007 5.89550678 3.56635317 8 7 C8 7.66 8 8.32 8 9 C8.66 9 9.32 9 10 9 C13.0791552 19.76431942 11.59431356 26.77923054 6.43969727 36.50830078 C2.83878192 43.54243037 3.79387595 48.69221407 6 56 C6 57.32 6 58.64 6 60 C2.70114403 59.7556403 1.77114107 58.77114107 -0.625 56.375 C-5.56571064 49.97487945 -5.68464 42.4867628 -4.72265625 34.77734375 C-3.91164618 30.39788939 -2.50786073 26.90923766 -0.375 23 C2.80771913 16.95377251 2.92354219 12.11695488 1 5.625 C0.67 4.75875 0.34 3.8925 0 3 C0 2.01 0 1.02 0 0 Z " fill="#010101" transform="translate(117,91)"/>
<path d="" fill="#000000" transform="translate(0,0)"/>
<path d="" fill="#000000" transform="translate(0,0)"/>
<path d="" fill="#000000" transform="translate(0,0)"/>
<path d="" fill="#000000" transform="translate(0,0)"/>
<path d="" fill="#000000" transform="translate(0,0)"/>
</svg>
