<svg width="47" height="62" viewBox="0 0 47 62" fill="none" xmlns="http://www.w3.org/2000/svg">
<path d="M11.4503 41.0915L8.91667 60.1667L22.2995 52.137C22.736 51.8751 22.9542 51.7442 23.1872 51.693C23.3933 51.6478 23.6067 51.6478 23.8128 51.693C24.0458 51.7442 24.264 51.8751 24.7005 52.137L38.0833 60.1667L35.5514 41.0833M36.4088 8.39261C36.8593 9.48204 37.7239 10.348 38.8126 10.8001L42.6302 12.3814C43.7197 12.8327 44.5853 13.6984 45.0365 14.7879C45.4878 15.8774 45.4878 17.1016 45.0365 18.1911L43.4564 22.0061C43.0049 23.0961 43.0043 24.3215 43.4578 25.4109L45.0352 29.2248C45.2589 29.7644 45.3741 30.3428 45.3742 30.927C45.3743 31.5112 45.2593 32.0896 45.0358 32.6293C44.8122 33.169 44.4845 33.6594 44.0714 34.0724C43.6583 34.4854 43.1679 34.8129 42.6281 35.0363L38.8133 36.6165C37.7239 37.067 36.858 37.9316 36.4059 39.0204L34.8246 42.8381C34.3733 43.9276 33.5077 44.7932 32.4182 45.2445C31.3288 45.6958 30.1046 45.6958 29.0152 45.2445L25.2003 43.6643C24.1108 43.2141 22.8871 43.2151 21.7983 43.6669L17.9807 45.246C16.8918 45.6962 15.6688 45.6958 14.5802 45.2449C13.4916 44.794 12.6265 43.9294 12.1749 42.841L10.5931 39.0222C10.1427 37.9327 9.27807 37.0668 8.18935 36.6147L4.37177 35.0333C3.28276 34.5822 2.41744 33.7172 1.96599 32.6283C1.51455 31.5394 1.51394 30.3158 1.96429 29.2264L3.54445 25.4115C3.99462 24.3219 3.9937 23.0982 3.5419 22.0093L1.964 18.1888C1.74029 17.6492 1.62509 17.0708 1.625 16.4866C1.62491 15.9025 1.73992 15.324 1.96346 14.7843C2.187 14.2446 2.51469 13.7543 2.9278 13.3413C3.34092 12.9283 3.83136 12.6007 4.37111 12.3774L8.18596 10.7971C9.2744 10.3471 10.1398 9.4835 10.5922 8.396L12.1735 4.57827C12.6248 3.48875 13.4904 2.62314 14.5799 2.17184C15.6693 1.72055 16.8935 1.72055 17.9829 2.17184L21.7978 3.75206C22.8873 4.20225 24.111 4.20133 25.1998 3.74951L29.019 2.17429C30.1083 1.72325 31.3322 1.72335 32.4215 2.17455C33.5107 2.62575 34.3762 3.49112 34.8275 4.58036L36.4093 8.39922L36.4088 8.39261Z" stroke="black" stroke-width="2" stroke-linecap="round" stroke-linejoin="round"/>
</svg>
