<svg width="59" height="58" viewBox="0 0 59 58" fill="none" xmlns="http://www.w3.org/2000/svg">
<path d="M40.7 46.5L49.1 36M49.1 36L57.5 46.5M49.1 36V57M57.5 18.5H1.5M57.5 25.5V12.2C57.5 8.27964 57.5 6.31945 56.8896 4.82207C56.3527 3.50494 55.4961 2.43407 54.4423 1.76296C53.2444 1 51.6763 1 48.54 1H10.46C7.32371 1 5.75556 1 4.55765 1.76295C3.50395 2.43407 2.64726 3.50493 2.11036 4.82207C1.5 6.31945 1.5 8.27963 1.5 12.2V38.8C1.5 42.7204 1.5 44.6805 2.11036 46.1779C2.64725 47.4951 3.50395 48.5659 4.55765 49.237C5.75556 50 7.32371 50 10.46 50H29.5" stroke="black" stroke-width="2" stroke-linecap="round" stroke-linejoin="round"/>
</svg>
