<svg width="61" height="62" viewBox="0 0 61 62" fill="none" xmlns="http://www.w3.org/2000/svg">
<path d="M39.2497 22.25H39.2788M21.7497 22.25H21.7788M59.6663 31C59.6663 47.1083 46.608 60.1667 30.4997 60.1667C14.3914 60.1667 1.33301 47.1083 1.33301 31C1.33301 14.8917 14.3914 1.83337 30.4997 1.83337C46.608 1.83337 59.6663 14.8917 59.6663 31ZM40.708 22.25C40.708 23.0555 40.0551 23.7084 39.2497 23.7084C38.4443 23.7084 37.7913 23.0555 37.7913 22.25C37.7913 21.4446 38.4443 20.7917 39.2497 20.7917C40.0551 20.7917 40.708 21.4446 40.708 22.25ZM23.208 22.25C23.208 23.0555 22.5551 23.7084 21.7497 23.7084C20.9443 23.7084 20.2913 23.0555 20.2913 22.25C20.2913 21.4446 20.9443 20.7917 21.7497 20.7917C22.5551 20.7917 23.208 21.4446 23.208 22.25ZM30.4997 47.0417C37.7928 47.0417 43.6247 41.6955 43.6247 36.8334H17.3747C17.3747 41.6955 23.2065 47.0417 30.4997 47.0417Z" stroke="black" stroke-width="2" stroke-linecap="round" stroke-linejoin="round"/>
</svg>
