<svg width="150" height="64" viewBox="0 0 150 64" fill="none" xmlns="http://www.w3.org/2000/svg">
<path d="M8.51296 61.4778C7.97702 61.4778 7.41895 61.23 6.84758 60.7301C6.27178 60.2301 5.98387 59.6372 5.98387 58.9514C5.98387 58.5665 6.08131 58.186 6.27177 57.8011C6.46223 57.4162 7.05575 56.9383 8.05233 56.3631C9.0489 55.788 11.3122 54.6996 14.8379 53.0891C16.4501 51.7883 17.2518 50.7884 17.2518 50.0982C17.2518 49.7177 17.0215 49.3902 16.5609 49.1204C16.1002 48.8549 15.5244 48.5275 14.8335 48.1426C12.9953 47.3019 10.8649 46.5542 8.45095 45.9038C6.03703 45.2534 4.09702 44.5809 2.64424 43.8951C1.18702 43.2049 0.345477 42.2492 0.115157 41.0236L0 40.3334C0 39.4928 0.345484 38.6477 1.03644 37.8071C2.64868 35.7364 5.36821 33.7278 9.20391 31.7766C13.0352 29.8254 16.8355 28.5025 20.5914 27.8123C22.124 27.8123 22.9655 28.4273 23.1205 29.6529C23.1205 31.1837 22.5049 32.0288 21.2824 32.1792C17.832 32.7942 14.1868 34.1304 10.3555 36.201C7.36579 37.8867 5.5631 39.1875 4.94744 40.1078C6.17433 40.5679 7.82644 41.1033 9.89488 41.7183C13.2655 42.7934 15.799 43.7093 17.4866 44.4747C19.6303 45.5454 20.9724 46.9657 21.5127 48.7266C21.6633 49.1867 21.743 49.6469 21.743 50.1026L47.3927 38.8424C47.7736 38.692 48.0836 38.6123 48.3139 38.6123C49.2352 38.6123 49.9217 39.0326 50.3824 39.8777C50.533 40.183 50.6127 40.5281 50.6127 40.913C50.6127 41.6785 50.1919 42.3288 49.3459 42.8642L30.7122 51.1379C25.9552 53.0537 21.433 55.0048 17.1411 57.0003C14.6873 58.8364 12.579 60.1018 10.8162 60.792C10.0499 61.2521 9.28364 61.4822 8.51739 61.4822L8.51296 61.4778Z" fill="black"/>
<path d="M70.8584 63.7741C68.79 63.7741 66.9075 63.3891 65.22 62.6237C61.3843 60.7079 59.3557 57.6816 59.1254 53.5448C59.1254 52.244 59.1608 51.2087 59.2406 50.4433C59.2406 49.9079 59.0855 49.4876 58.7799 49.1779C58.4743 48.8726 58.1288 48.7177 57.7435 48.7177C57.4379 48.7177 57.1278 48.8328 56.8222 49.0628C55.4403 50.0583 53.9831 50.9786 52.4506 51.8237C49.8418 53.5846 47.3127 54.4651 44.8589 54.4651C43.632 54.4651 42.4627 54.027 41.3509 53.1422C40.2392 52.2617 39.6855 51.1335 39.6855 49.753C39.6855 49.1425 39.8007 48.5275 40.031 47.9125C41.1029 44.8508 43.539 41.8245 47.3348 38.838C51.1307 35.8515 54.8291 34.0507 58.4344 33.4357L59.8164 33.3207C62.3454 33.3207 64.2279 34.356 65.4547 36.4222C68.5198 31.9801 71.6645 27.9583 74.8846 24.3568C84.3144 13.9417 93.4784 6.01311 102.377 0.571057C102.837 0.340987 103.218 0.225952 103.528 0.225952C104.37 0.225952 105.025 0.646273 105.486 1.49134C105.637 1.79663 105.716 2.14173 105.716 2.52666C105.716 3.29208 105.331 3.94248 104.565 4.47783C100.729 6.85375 96.4372 10.088 91.6802 14.185C86.9232 18.2821 82.4408 22.6711 78.2242 27.3389C68.4843 38.5238 63.6166 46.9878 63.6166 52.7351C63.6166 55.4915 64.8037 57.4471 67.1822 58.5931C68.254 59.0532 69.4809 59.2833 70.8628 59.2833C76.231 59.2833 83.5171 55.7968 92.7166 48.8239C96.6276 45.8374 100.233 42.966 103.528 40.2051C104.064 39.745 104.565 39.3645 105.025 39.0548C105.486 38.7495 105.982 38.5946 106.522 38.5946C107.134 38.5946 107.652 38.8424 108.073 39.3424C108.493 39.8423 108.706 40.3202 108.706 40.7803C108.706 41.4705 108.418 42.0634 107.842 42.5589C107.267 43.0589 106.522 43.6916 105.601 44.457L103.763 45.948C99.0858 50.0097 93.257 54.2217 86.2765 58.5886C80.2971 62.0353 75.1592 63.7608 70.8628 63.7608L70.8584 63.7741ZM44.974 49.9831C47.8087 49.9831 53.487 46.4214 61.9955 39.2981L61.65 38.7229C61.1894 38.1124 60.5029 37.8027 59.5816 37.8027C58.8154 37.8027 58.0491 37.9575 57.2828 38.2628C53.6022 39.4884 50.1872 41.7492 47.0425 45.041C46.1965 46.0365 45.5853 46.8772 45.2044 47.5674C44.5887 48.5629 44.2831 49.3283 44.2831 49.8637C44.4337 49.9389 44.664 49.9787 44.974 49.9787V49.9831Z" fill="black"/>
<path d="M112.152 63.7741C110.084 63.7741 108.202 63.3892 106.514 62.6237C103.294 61.0885 101.296 58.6373 100.53 55.2703C100.375 54.5049 100.3 53.7793 100.3 53.0891C100.3 49.0274 101.757 44.6605 104.671 39.9883C104.671 39.8335 104.747 39.6831 104.902 39.5282C112.033 27.9627 121.427 17.583 133.085 8.38904C138.608 4.02213 142.86 1.84088 145.854 1.84088C146.926 1.84088 147.883 2.14617 148.729 2.76116C149.57 3.37616 149.996 4.2168 149.996 5.28752C149.996 6.28301 149.575 7.51301 148.729 8.96422C146.891 12.1056 141.177 17.468 131.592 25.0515C125.303 30.0334 118.212 35.356 110.314 41.0237L108.591 42.289C106.138 46.5807 104.911 50.1026 104.911 52.859C104.911 55.4606 106.098 57.3764 108.476 58.6019C109.548 59.1373 110.775 59.4072 112.157 59.4072C118.827 59.4072 129.023 53.5846 142.754 41.9395C144.056 40.8688 145.093 40.0414 145.859 39.4707C146.625 38.8955 147.241 38.6079 147.697 38.6079C148.388 38.6079 148.942 38.8778 149.367 39.4132C149.787 39.9485 150 40.4485 150 40.9086C150 41.5988 149.712 42.1696 149.136 42.6297C148.561 43.0899 147.812 43.7049 146.895 44.4703L143.675 46.9966C139.148 50.9034 133.785 54.7704 127.571 58.6019C121.591 62.0486 116.449 63.7741 112.157 63.7741H112.152ZM118.477 29.5334L122.043 26.777C130.401 20.4191 136.535 15.3619 140.446 11.61C142.9 9.23411 144.278 7.77847 144.588 7.24312V7.12808C144.588 6.89801 144.472 6.78297 144.242 6.78297C142.63 7.1679 139.64 9.04386 135.269 12.4108C129.059 17.5432 123.996 22.3304 120.085 26.7726L119.164 27.8079L118.127 29.0733C118.127 29.3785 118.243 29.5334 118.473 29.5334H118.477Z" fill="black"/>
</svg>
