<?xml version="1.0" standalone="no"?>
<!DOCTYPE svg PUBLIC "-//W3C//DTD SVG 20010904//EN"
 "http://www.w3.org/TR/2001/REC-SVG-20010904/DTD/svg10.dtd">
<svg version="1.0" xmlns="http://www.w3.org/2000/svg"
 width="500.000000pt" height="500.000000pt" viewBox="0 0 500.000000 500.000000"
 preserveAspectRatio="xMidYMid meet">
<metadata>
Created by potrace 1.14, written by Peter Selinger 2001-2017
</metadata>
<g transform="translate(0.000000,500.000000) scale(0.100000,-0.100000)"
fill="#000000" stroke="none">
<path d="M0 2500 l0 -2500 2500 0 2500 0 0 2500 0 2500 -2500 0 -2500 0 0
-2500z m4870 30 l0 -2370 -2370 0 -2370 0 0 2370 0 2370 2370 0 2370 0 0
-2370z"/>
<path d="M190 2530 l0 -2310 2310 0 2310 0 0 2310 0 2310 -2310 0 -2310 0 0
-2310z m3122 843 c10 -9 18 -29 18 -44 0 -30 -7 -37 -137 -128 -140 -97 -291
-228 -458 -395 -374 -375 -577 -710 -534 -882 25 -100 121 -147 250 -124 180
33 363 141 702 413 151 121 174 144 227 224 247 370 737 826 963 895 58 17 75
19 107 9 43 -13 80 -52 80 -86 0 -49 -62 -147 -150 -234 -147 -146 -461 -399
-808 -649 -159 -115 -163 -118 -197 -187 -103 -205 -78 -346 68 -386 170 -46
434 92 896 469 66 53 110 82 126 82 45 0 79 -52 57 -87 -21 -33 -359 -296
-498 -386 -215 -141 -373 -202 -519 -201 -96 1 -138 13 -207 60 -79 55 -124
170 -109 279 5 33 7 61 6 63 -2 2 -32 -19 -67 -46 -94 -74 -298 -208 -391
-257 -127 -68 -225 -97 -332 -98 -108 -2 -173 17 -234 69 -65 56 -94 122 -97
222 -2 76 -13 112 -34 112 -5 0 -44 -22 -87 -49 -203 -125 -298 -140 -372 -56
-33 38 -42 96 -20 136 10 19 9 19 -23 5 -18 -8 -154 -66 -301 -130 -149 -64
-307 -140 -355 -170 -48 -29 -109 -62 -135 -71 -47 -18 -49 -18 -75 2 -30 23
-40 69 -20 95 7 9 60 40 118 68 109 54 170 101 170 132 0 25 -88 67 -235 113
-188 58 -225 84 -225 154 0 44 35 90 114 148 121 89 347 183 442 183 38 0 46
-4 56 -25 8 -18 9 -35 2 -53 -8 -23 -20 -29 -97 -49 -48 -12 -125 -40 -171
-61 -79 -38 -198 -111 -210 -131 -4 -5 57 -30 135 -55 226 -74 291 -114 306
-187 3 -16 10 -29 15 -29 5 0 60 22 121 49 62 27 211 93 331 146 120 53 244
113 275 134 31 21 80 50 110 65 54 28 178 59 203 52 7 -2 25 -7 40 -10 15 -4
43 -20 61 -36 l34 -30 69 93 c219 293 567 630 841 813 100 67 125 75 155 47z"/>
<path d="M4294 3174 c-137 -82 -298 -219 -486 -413 -122 -125 -165 -178 -125
-155 28 17 271 206 382 298 123 102 315 283 315 298 0 16 -27 7 -86 -28z"/>
<path d="M1954 2330 c-127 -63 -242 -170 -273 -253 -13 -33 1 -38 58 -21 69
20 233 129 380 252 31 27 32 29 16 45 -29 30 -94 22 -181 -23z"/>
</g>
</svg>
